PathFileType	4	(X/Y/Z)	/Users/itak/Documents/Research/Walk-IL/dataset/trc/00534_00009.trc
DataRate	CameraRate	NumFrames	NumMarkers	Units	OrigDataRate	OrigDataStartFrame	OrigNumFrames
100.000000	100.000000	4	54	mm	100.000000	468	624
Frame#	Time	RPSI			LPSI			L3			STRN			T10			C7			CLAV			RBAK			LBAK			LSHO			LUPA			LAEL			LAOL			LWTS			LWPS			LFRA			LHPS			LHTS			RSHO			RUPA			RAEL			RAOL			RWTS			RWPS			RFRA			RIFD			RHTS			RHPS			RBHD			LFHD			RFHD			LBHD			LHIP			RASI			LASI			LKNE			LTHI			LANK			LTIP			LTOE			LMT1			LMT5			LHEE			RKNE			RTHI			RANK			RTIP			RTOE			RMT1			RMT5			RHEE			RHIP			LIFD			*53			
		X1	Y1	Z1	X2	Y2	Z2	X3	Y3	Z3	X4	Y4	Z4	X5	Y5	Z5	X6	Y6	Z6	X7	Y7	Z7	X8	Y8	Z8	X9	Y9	Z9	X10	Y10	Z10	X11	Y11	Z11	X12	Y12	Z12	X13	Y13	Z13	X14	Y14	Z14	X15	Y15	Z15	X16	Y16	Z16	X17	Y17	Z17	X18	Y18	Z18	X19	Y19	Z19	X20	Y20	Z20	X21	Y21	Z21	X22	Y22	Z22	X23	Y23	Z23	X24	Y24	Z24	X25	Y25	Z25	X26	Y26	Z26	X27	Y27	Z27	X28	Y28	Z28	X29	Y29	Z29	X30	Y30	Z30	X31	Y31	Z31	X32	Y32	Z32	X33	Y33	Z33	X34	Y34	Z34	X35	Y35	Z35	X36	Y36	Z36	X37	Y37	Z37	X38	Y38	Z38	X39	Y39	Z39	X40	Y40	Z40	X41	Y41	Z41	X42	Y42	Z42	X43	Y43	Z43	X44	Y44	Z44	X45	Y45	Z45	X46	Y46	Z46	X47	Y47	Z47	X48	Y48	Z48	X49	Y49	Z49	X50	Y50	Z50	X51	Y51	Z51	X52	Y52	Z52	X53	Y53	Z53	X54	Y54	Z54	

469	4.68	509.9256591796875	996.8649291992188	210.3527984619141	558.701904296875	991.51220703125	86.92474365234375	534.0130615234375	1093.503784179688	147.4018249511719	756.9588012695312	1281.296020507812	221.6691741943359	524.8904418945312	1219.400268554688	144.8941802978516	568.0250244140625	1491.860229492188	177.8952484130859	739.5722045898438	1392.8017578125	216.5346984863281	472.4674682617188	1368.40478515625	240.5612335205078	561.0277099609375	1438.821411132812	81.02773284912109	678.1329956054688	1465.043579101562	30.45859718322754	684.0867309570312	1340.703735351562	-52.15660858154297	691.2628173828125	1119.185424804688	-77.98271942138672	594.5184326171875	1117.3095703125	-45.99441528320312	754.5128784179688	869.39453125	-16.15642738342285	725.0135498046875	850.9779052734375	-96.509033203125	709.1089477539062	1031.22607421875	-82.36256408691406	726.0244140625	789.9893188476562	-87.56694793701172	767.3114013671875	790.76708984375	-33.88207626342773	580.8997192382812	1454.434936523438	341.4393005371094	544.5951538085938	1391.321044921875	401.6656188964844	538.669677734375	1104.615966796875	457.0207824707031	495.9298400878906	1081.344604492188	417.8100280761719	701.5318603515625	899.6600341796875	460.3706970214844	644.7841796875	874.9928588867188	513.9212036132812	552.7102661132812	1049.479736328125	468.3046569824219	732.1451416015625	727.340087890625	479.5061950683594	734.8495483398438	811.5515747070312	485.5066833496094	670.0632934570312	804.0955810546875	520.14794921875	617.6213989257812	1667.61328125	256.8721313476562	808.7372436523438	1696.168090820312	179.7578735351562	745.4586181640625	1695.113525390625	309.897216796875	696.9771118164062	1667.588623046875	111.7958221435547	732.7650146484375	921.3983154296875	19.40895652770996	679.9207153320312	959.4122314453125	353.569580078125	779.8154296875	951.486328125	96.96587371826172	887.4102172851562	514.7108154296875	127.4039459228516	837.6358032226562	666.0972290039062	67.81240081787109	958.15087890625	36.41764450073242	151.1753845214844	907.9382934570312	262.2468566894531	123.3247604370117	1115.1708984375	107.0901794433594	276.4087829589844	1039.092651367188	87.79979705810547	282.6424255371094	1069.79638671875	65.65922546386719	184.1598968505859	874.881103515625	28.98418045043945	174.0313873291016	567.5304565429688	489.3463745117188	296.8530578613281	602.2623291015625	773.5687255859375	370.5549926757812	428.9280700683594	44.98421859741211	200.6488342285156	550.4302978515625	347.4826049804688	265.3992004394531	651.433837890625	41.20719528198242	224.3852233886719	599.8364868164062	43.52593231201172	168.391357421875	549.0969848632812	40.31222534179688	260.590087890625	390.949462890625	43.26605987548828	131.5547943115234	575.291259765625	931.8853759765625	372.9428405761719	739.0894165039062	699.1142578125	-26.33259201049805	nan	nan	nan	
470	4.69	516.736572265625	996.1273803710938	211.0625305175781	565.8250122070312	990.6400756835938	87.74306488037109	540.7521362304688	1092.520141601562	148.0370788574219	763.357421875	1280.5166015625	222.6612243652344	531.508056640625	1218.421997070312	145.3755950927734	574.4373168945312	1490.995971679688	178.1269683837891	745.9236450195312	1392.003295898438	217.3080902099609	478.8102722167969	1367.526245117188	240.6614532470703	567.6934204101562	1437.791137695312	81.30029296875	684.8766479492188	1463.966186523438	30.99520683288574	691.1785888671875	1339.486572265625	-51.43817520141602	698.7403564453125	1117.93212890625	-76.95292663574219	601.9247436523438	1115.948608398438	-45.20828628540039	762.076416015625	868.3027954101562	-14.57519340515137	732.841552734375	849.7553100585938	-94.99549102783203	716.65576171875	1029.981201171875	-81.10960388183594	733.9237670898438	788.784912109375	-85.97907257080078	775.026611328125	789.6702270507812	-32.14468765258789	586.8894653320312	1453.672241210938	341.7902221679688	550.50927734375	1390.578491210938	401.93994140625	544.3909301757812	1103.836303710938	457.3039855957031	501.7607421875	1080.634033203125	417.9202880859375	706.79833984375	898.5180053710938	461.0818176269531	649.822509765625	874.0064086914062	514.4669189453125	558.2191772460938	1048.682006835938	468.6756591796875	736.9408569335938	726.1156005859375	480.3373718261719	739.8327026367188	810.33251953125	486.2982177734375	674.9437866210938	803.0604858398438	520.84765625	623.8555908203125	1666.848388671875	257.1916809082031	815.048583984375	1695.404052734375	180.3499603271484	751.54931640625	1694.398559570312	310.3197937011719	703.38232421875	1666.7529296875	112.2461090087891	739.8516235351562	920.3052368164062	20.89876174926758	686.4918823242188	958.6217041015625	354.9549865722656	786.9196166992188	950.5464477539062	98.40488433837891	892.0914306640625	512.9295043945312	128.9450378417969	843.3084716796875	664.51708984375	69.49428558349609	961.9508056640625	34.93789291381836	152.8755798339844	912.45361328125	260.5454711914062	125.1926803588867	1119.074584960938	104.4995574951172	278.6994323730469	1042.816162109375	85.62018585205078	284.769775390625	1073.511840820312	63.42093658447266	186.349853515625	878.4996337890625	28.61436080932617	175.53857421875	571.6517944335938	489.0643005371094	297.7369079589844	607.479248046875	773.0672607421875	371.8928833007812	429.1841125488281	45.61794662475586	200.5871734619141	553.4383544921875	347.2559509277344	266.0678405761719	651.5783081054688	41.1441764831543	224.4175415039062	599.968017578125	43.62171936035156	168.52490234375	549.1297607421875	40.28181838989258	260.6058654785156	391.1211547851562	44.46831512451172	131.5353240966797	581.5520629882812	931.3392944335938	373.8683471679688	746.9284057617188	697.9873657226562	-24.56266593933105	nan	nan	nan	
471	4.7	523.637939453125	995.4662475585938	211.7671813964844	573.0103149414062	989.8736572265625	88.52377319335938	547.6160888671875	1091.5771484375	148.6773223876953	769.82275390625	1279.815673828125	223.6431732177734	538.2222290039062	1217.49267578125	145.8169097900391	580.9011840820312	1490.194458007812	178.3119506835938	752.3317260742188	1391.28173828125	218.0527496337891	485.2206420898438	1366.67431640625	240.7041625976562	574.4255981445312	1436.8251953125	81.5281982421875	691.6943359375	1462.946533203125	31.4882926940918	698.3821411132812	1338.316284179688	-50.75724029541016	706.3702392578125	1116.721923828125	-75.93344879150391	609.476806640625	1114.613037109375	-44.46490859985352	769.82177734375	867.2825927734375	-12.96241283416748	740.893310546875	848.5888671875	-93.45696258544922	724.38525390625	1028.786865234375	-79.86772918701172	742.06787109375	787.6366577148438	-84.36325073242188	782.9628295898438	788.646484375	-30.36209869384766	592.904296875	1452.977661132812	342.1039123535156	556.451171875	1389.8798828125	402.1658630371094	550.203369140625	1103.107788085938	457.5400085449219	507.6247863769531	1079.973022460938	418.0075988769531	712.116455078125	897.405517578125	461.8260803222656	654.8684692382812	873.060302734375	515.0322875976562	563.8126831054688	1047.92041015625	469.0001831054688	741.7742309570312	724.9290771484375	481.25390625	744.8560791015625	809.1527099609375	487.1658325195312	679.84716796875	802.0661010742188	521.5911865234375	630.1399536132812	1666.167602539062	257.4834594726562	821.4078369140625	1694.724365234375	180.9275207519531	757.6939697265625	1693.775634765625	310.7370300292969	709.8265380859375	1666.01318359375	112.6772079467773	746.9845581054688	919.3173828125	22.31847381591797	693.157470703125	957.86181640625	356.3175354003906	794.0694580078125	949.6771850585938	99.79120635986328	896.8311157226562	511.2845153808594	130.4631652832031	849.0609130859375	663.0614624023438	71.15650177001953	964.764404296875	33.54057693481445	154.1411743164062	916.6332397460938	258.9182434082031	126.969596862793	1122.425415039062	100.7368392944336	280.6552429199219	1045.905395507812	82.66239929199219	286.5822448730469	1076.36962890625	60.53242111206055	188.1388244628906	881.1578369140625	28.66157722473145	176.7366180419922	575.90087890625	488.8075561523438	298.5984802246094	612.8639526367188	772.5638427734375	373.1505432128906	429.4803771972656	46.32729721069336	200.5701293945312	556.5701904296875	347.06201171875	266.7198486328125	651.712890625	41.08593368530273	224.4454498291016	600.102783203125	43.72246170043945	168.6662445068359	549.1683349609375	40.24935150146484	260.6160583496094	391.2820739746094	45.80788421630859	131.5534362792969	587.9274291992188	930.8011474609375	374.7580261230469	755.0042114257812	696.9263916015625	-22.7466983795166	nan	nan	nan	
472	4.71	530.611328125	994.9000244140625	212.4790649414062	580.216552734375	989.2506713867188	89.27549743652344	554.5950317382812	1090.712280273438	149.3323364257812	776.3538208007812	1279.21875	224.6098022460938	545.022705078125	1216.641845703125	146.2351684570312	587.4161987304688	1489.481567382812	178.4623870849609	758.7940063476562	1390.662841796875	218.7708129882812	491.700439453125	1365.878051757812	240.700439453125	581.21533203125	1435.954711914062	81.72308349609375	698.5748291015625	1462.016235351562	31.94306755065918	705.6817016601562	1337.2197265625	-50.1026496887207	714.1443481445312	1115.58251953125	-74.91155242919922	617.1671752929688	1113.325317382812	-43.74393463134766	777.7451782226562	866.3567504882812	-11.32084083557129	749.15478515625	847.505126953125	-91.89483642578125	732.2930908203125	1027.67041015625	-78.63266754150391	750.43798828125	786.5703125	-82.72025299072266	791.1178588867188	787.7234497070312	-28.55149459838867	598.9535522460938	1452.379760742188	342.3872985839844	562.4229125976562	1389.252807617188	402.351806640625	556.1058349609375	1102.456176757812	457.7261352539062	513.5681762695312	1079.378173828125	418.0473937988281	717.4808959960938	896.3441162109375	462.5954895019531	659.9185791015625	872.178955078125	515.61083984375	569.494873046875	1047.223266601562	469.2764892578125	746.6322021484375	723.801025390625	482.2421875	749.9114990234375	808.0313720703125	488.1007690429688	684.76220703125	801.1334228515625	522.361572265625	636.4735107421875	1665.601196289062	257.7554321289062	827.8216552734375	1694.159423828125	181.4960479736328	763.8943481445312	1693.268920898438	311.1535034179688	716.3204956054688	1665.402221679688	113.0926055908203	754.1320190429688	918.4898681640625	23.64274024963379	699.9076538085938	957.1541748046875	357.6435241699219	801.2367553710938	948.9200439453125	101.1103897094727	901.665771484375	509.8607482910156	131.9486694335938	854.8984985351562	661.792236328125	72.77036285400391	966.7319946289062	32.32393646240234	155.0255737304688	920.5775146484375	257.4476928710938	128.6610565185547	1125.370727539062	95.93473815917969	282.2667541503906	1048.524536132812	79.04339599609375	288.0804748535156	1078.538330078125	57.12571334838867	189.5128784179688	883.0321044921875	29.09870910644531	177.6934967041016	580.3074340820312	488.5755310058594	299.4247131347656	618.4878540039062	772.0552368164062	374.2882080078125	429.8075866699219	47.14133834838867	200.6076812744141	559.8428955078125	346.90478515625	267.3462219238281	651.8347778320312	41.02857208251953	224.4753112792969	600.2440185546875	43.83217620849609	168.8075866699219	549.218017578125	40.21829605102539	260.6192626953125	391.4458923339844	47.29873657226562	131.6083984375	594.4248657226562	930.2745971679688	375.6110229492188	763.3108520507812	695.9573364257812	-20.89971160888672	nan	nan	nan	
